<svg id="Layer_1" data-name="Layer 1" xmlns="http://www.w3.org/2000/svg" width="3.4in" height="1.8in" viewBox="0 0 244 126.3"><title>Artboard 1</title><path d="M230.8.1a13.3,13.3,0,0,0-13.2,13.2A13.7,13.7,0,0,0,224,24.8l-8.5,26.4-4.3-1-5.3-20.4a13.4,13.4,0,1,0-6.4,1.5h.3l5.1,19.1c-8.4,2-15.3,9.9-21.6,17.1s-14,15.8-22.4,17.1c-2-22.9-9.7-41-22.9-54C116.4,9.7,88.7,10,87.7,10A60.2,60.2,0,0,0,27.6,70.1a43.1,43.1,0,0,0,12.5,30.3C19.2,106.5,6,113.6.6,121.2a3.2,3.2,0,0,0,2.5,5.1H216.5a3.3,3.3,0,0,0,.8-6.4c-5.3-1.5-13.7-5.3-15.5-8.9a2.2,2.2,0,0,1,0-1.8c.8-1.8,3.8-5.6,7.1-9.4,8.7-10.2,20.4-24.4,18.8-35.6A14.3,14.3,0,0,0,221.1,54h-.3l8.9-27.5h1a13.3,13.3,0,0,0,0-26.5Zm-38.5,18a7.1,7.1,0,0,1,7.1-7.1h0a7,7,0,0,1,0,14A7.1,7.1,0,0,1,192.3,18.1ZM87.4,16.6h0c2.3,0,27,.5,45.6,18.8,13.7,13.5,20.9,33.4,21.6,58.8H105.8a42.9,42.9,0,0,0,7.4-23.9,26,26,0,1,0-51.9,0,3.1,3.1,0,0,0,3.1,3.1h0a3.3,3.3,0,0,0,3.1-3.1,19.6,19.6,0,1,1,39.2,0h0a36.7,36.7,0,1,1-73.3,0A54.3,54.3,0,0,1,87.4,16.6ZM221.6,65.2c1.3,8.7-9.9,21.9-17.3,30.8-3.8,4.6-6.9,8.1-7.9,10.7a7.8,7.8,0,0,0,0,7.1,17.2,17.2,0,0,0,5.9,6.4H10.8c6.9-5.1,18.8-10.2,34.9-14.5a42.6,42.6,0,0,0,54.7-5.1h57.3a3.1,3.1,0,0,0,3.1-3.1h0a53.2,53.2,0,0,0-.3-6.4c10.9-1.5,19.3-10.9,27-19.3,11.2-12.7,18.6-19.9,30-12.2A7,7,0,0,1,221.6,65.2Zm9.2-44.8a7.1,7.1,0,0,1-7.1-7.1h0a7.2,7.2,0,1,1,7.2,7.1Z" fill="#fff"/></svg>